# xmcd
#
# Track frame offsets:
# 150
# 8589
# 27717
# 44016
# 58910
# 76538
# 86253
# 97710
# 113705
# 120351
# 133873
# 148315
# 160483
#
# Disc length: 2481 seconds
#
# Revision: 0
# Processed by: cddbd v1.4PL0 Copyright (c) Steve Scherf et al.
# Submitted via: Audion 3.0.2 (http://www.panic.com/audion/)
#
DISCID=a409af0d
DTITLE=Super XX Man - Vol. VI "Collecting Rocks"
DYEAR=1900
DGENRE=
TTITLE0=i'm alive again
TTITLE1=coulee city
TTITLE2=mr. moon
TTITLE3=casper nights
TTITLE4=it's simple
TTITLE5=tiny fibers
TTITLE6=new memories
TTITLE7=his long days were true
TTITLE8=deep aquatic me
TTITLE9=pilot rock
TTITLE10=turn around
TTITLE11=lone star
TTITLE12=collecting rocks
EXTD=
EXTT0=
EXTT1=
EXTT2=
EXTT3=
EXTT4=
EXTT5=
EXTT6=
EXTT7=
EXTT8=
EXTT9=
EXTT10=
EXTT11=
EXTT12=
PLAYORDER=
